<mxfile type="github" version="13.7.7" etag="MqFQYbJv36t28fDA4cs3" agent="5.0 (Windows NT 10.0; Win64; x64) AppleWebKit/537.36 (KHTML, like Gecko) Chrome/64.0.3282.140 Safari/537.36 Edge/18.17763" modified="2020-10-05T12:15:34.734Z" host="app.diagrams.net">
  <diagram id="XOBUdz3-UfbB6YAW-WYy" name="Page-1">
    <mxGraphModel grid="1" shadow="0" math="0" pageHeight="1169" pageWidth="827" pageScale="1" page="1" fold="1" arrows="1" connect="1" tooltips="1" guides="1" gridSize="10" dy="480" dx="868">
      <root>
        <mxCell id="0" />
        <mxCell id="1" parent="0" />
        <mxCell id="kFwF-f4345-qtAIGn7Fv-1" value="Router" parent="1" vertex="1" style="swimlane;html=1;childLayout=stackLayout;resizeParent=1;resizeParentMax=0;startSize=20;">
          <mxGeometry as="geometry" height="1110" width="600" y="40" x="114" />
        </mxCell>
        <mxCell id="kFwF-f4345-qtAIGn7Fv-2" value="MJ" parent="kFwF-f4345-qtAIGn7Fv-1" vertex="1" style="swimlane;html=1;startSize=20;">
          <mxGeometry as="geometry" height="1090" width="150" y="20" />
        </mxCell>
        <mxCell id="kFwF-f4345-qtAIGn7Fv-14" value="Start" parent="kFwF-f4345-qtAIGn7Fv-2" vertex="1" style="rounded=1;whiteSpace=wrap;html=1;">
          <mxGeometry as="geometry" height="60" width="120" y="40" x="15" />
        </mxCell>
        <mxCell id="kFwF-f4345-qtAIGn7Fv-10" value="PEA" parent="kFwF-f4345-qtAIGn7Fv-1" vertex="1" style="swimlane;html=1;startSize=20;">
          <mxGeometry as="geometry" height="1090" width="150" y="20" x="150" />
        </mxCell>
        <mxCell id="kFwF-f4345-qtAIGn7Fv-20" parent="kFwF-f4345-qtAIGn7Fv-10" style="edgeStyle=orthogonalEdgeStyle;rounded=0;orthogonalLoop=1;jettySize=auto;html=1;entryX=0.5;entryY=0;entryDx=0;entryDy=0;" target="kFwF-f4345-qtAIGn7Fv-17" edge="1" source="kFwF-f4345-qtAIGn7Fv-15">
          <mxGeometry as="geometry" relative="1" />
        </mxCell>
        <mxCell id="kFwF-f4345-qtAIGn7Fv-15" value="New Spec Process Sheet &amp;amp; R/T" parent="kFwF-f4345-qtAIGn7Fv-10" vertex="1" style="rounded=0;whiteSpace=wrap;html=1;">
          <mxGeometry as="geometry" height="60" width="120" y="140" x="15" />
        </mxCell>
        <mxCell id="kFwF-f4345-qtAIGn7Fv-17" value="Add New Spec (Daily)" parent="kFwF-f4345-qtAIGn7Fv-10" vertex="1" style="rounded=0;whiteSpace=wrap;html=1;">
          <mxGeometry as="geometry" height="60" width="120" y="230" x="15" />
        </mxCell>
        <mxCell id="kFwF-f4345-qtAIGn7Fv-11" value="PC" parent="kFwF-f4345-qtAIGn7Fv-1" vertex="1" style="swimlane;html=1;startSize=20;">
          <mxGeometry as="geometry" height="1090" width="150" y="20" x="300" />
        </mxCell>
        <mxCell id="kFwF-f4345-qtAIGn7Fv-12" value="Other" parent="kFwF-f4345-qtAIGn7Fv-1" vertex="1" style="swimlane;html=1;startSize=20;">
          <mxGeometry as="geometry" height="1090" width="150" y="20" x="450" />
        </mxCell>
        <mxCell id="kFwF-f4345-qtAIGn7Fv-19" parent="kFwF-f4345-qtAIGn7Fv-1" style="edgeStyle=orthogonalEdgeStyle;rounded=0;orthogonalLoop=1;jettySize=auto;html=1;entryX=0.5;entryY=0;entryDx=0;entryDy=0;" target="kFwF-f4345-qtAIGn7Fv-15" edge="1" source="kFwF-f4345-qtAIGn7Fv-14">
          <mxGeometry as="geometry" relative="1">
            <Array as="points">
              <mxPoint y="140" x="75" />
              <mxPoint y="140" x="225" />
            </Array>
          </mxGeometry>
        </mxCell>
      </root>
    </mxGraphModel>
  </diagram>
</mxfile>
